<svg width="29" height="28" viewBox="0 0 29 28" fill="none" xmlns="http://www.w3.org/2000/svg">
<g id="vuesax/outline/bank">
<g id="bank">
<path id="Vector" d="M25 13.7083H4.00001C2.88001 13.7083 1.95834 12.7867 1.95834 11.6667V7.79333C1.95834 7 2.50665 6.195 3.24165 5.90333L13.7416 1.70336C14.185 1.52836 14.815 1.52836 15.2584 1.70336L25.7584 5.90333C26.4934 6.195 27.0417 7.01166 27.0417 7.79333V11.6667C27.0417 12.7867 26.12 13.7083 25 13.7083ZM14.5 3.31337C14.4533 3.31337 14.4067 3.31331 14.3834 3.32498L3.89498 7.52502C3.82498 7.56002 3.70834 7.71166 3.70834 7.79333V11.6667C3.70834 11.83 3.83668 11.9583 4.00001 11.9583H25C25.1633 11.9583 25.2917 11.83 25.2917 11.6667V7.79333C25.2917 7.71166 25.1867 7.56002 25.105 7.52502L14.605 3.32498C14.5817 3.31331 14.5467 3.31337 14.5 3.31337Z" fill="#1C2C56"/>
<path id="Vector_2" d="M26.1667 26.5417H2.83334C2.35501 26.5417 1.95834 26.145 1.95834 25.6667V22.1667C1.95834 21.0467 2.88001 20.125 4.00001 20.125H25C26.12 20.125 27.0417 21.0467 27.0417 22.1667V25.6667C27.0417 26.145 26.645 26.5417 26.1667 26.5417ZM3.70834 24.7917H25.2917V22.1667C25.2917 22.0033 25.1633 21.875 25 21.875H4.00001C3.83668 21.875 3.70834 22.0033 3.70834 22.1667V24.7917Z" fill="#1C2C56"/>
<path id="Vector_3" d="M5.16666 21.875C4.68832 21.875 4.29166 21.4783 4.29166 21V12.8333C4.29166 12.355 4.68832 11.9583 5.16666 11.9583C5.64499 11.9583 6.04166 12.355 6.04166 12.8333V21C6.04166 21.4783 5.64499 21.875 5.16666 21.875Z" fill="#1C2C56"/>
<path id="Vector_4" d="M9.83334 21.875C9.35501 21.875 8.95834 21.4783 8.95834 21V12.8333C8.95834 12.355 9.35501 11.9583 9.83334 11.9583C10.3117 11.9583 10.7083 12.355 10.7083 12.8333V21C10.7083 21.4783 10.3117 21.875 9.83334 21.875Z" fill="#1C2C56"/>
<path id="Vector_5" d="M14.5 21.875C14.0217 21.875 13.625 21.4783 13.625 21V12.8333C13.625 12.355 14.0217 11.9583 14.5 11.9583C14.9783 11.9583 15.375 12.355 15.375 12.8333V21C15.375 21.4783 14.9783 21.875 14.5 21.875Z" fill="#1C2C56"/>
<path id="Vector_6" d="M19.1667 21.875C18.6883 21.875 18.2917 21.4783 18.2917 21V12.8333C18.2917 12.355 18.6883 11.9583 19.1667 11.9583C19.645 11.9583 20.0417 12.355 20.0417 12.8333V21C20.0417 21.4783 19.645 21.875 19.1667 21.875Z" fill="#1C2C56"/>
<path id="Vector_7" d="M23.8333 21.875C23.355 21.875 22.9583 21.4783 22.9583 21V12.8333C22.9583 12.355 23.355 11.9583 23.8333 11.9583C24.3117 11.9583 24.7083 12.355 24.7083 12.8333V21C24.7083 21.4783 24.3117 21.875 23.8333 21.875Z" fill="#1C2C56"/>
<path id="Vector_8" d="M27.3333 26.5417H1.66666C1.18832 26.5417 0.791656 26.145 0.791656 25.6667C0.791656 25.1883 1.18832 24.7917 1.66666 24.7917H27.3333C27.8117 24.7917 28.2083 25.1883 28.2083 25.6667C28.2083 26.145 27.8117 26.5417 27.3333 26.5417Z" fill="#1C2C56"/>
<path id="Vector_9" d="M14.5 10.7917C13.0533 10.7917 11.875 9.61332 11.875 8.16666C11.875 6.71999 13.0533 5.54166 14.5 5.54166C15.9467 5.54166 17.125 6.71999 17.125 8.16666C17.125 9.61332 15.9467 10.7917 14.5 10.7917ZM14.5 7.29166C14.0217 7.29166 13.625 7.68832 13.625 8.16666C13.625 8.64499 14.0217 9.04166 14.5 9.04166C14.9783 9.04166 15.375 8.64499 15.375 8.16666C15.375 7.68832 14.9783 7.29166 14.5 7.29166Z" fill="#1C2C56"/>
</g>
</g>
</svg>
