<svg width="21" height="29" viewBox="0 0 21 29" fill="none" xmlns="http://www.w3.org/2000/svg">
<path d="M4.56055 3.40625L3.18945 13.5312H11.4688C11.8906 13.5312 12.2246 13.6895 12.4707 14.0059C12.7168 14.3223 12.7871 14.6914 12.6816 15.1133L11.4688 19.9648L17.5332 11H9.78125C9.35938 11 9.00781 10.8242 8.72656 10.4727C8.48047 10.0859 8.44531 9.68164 8.62109 9.25977L10.8887 3.40625H4.56055ZM2.08203 2.7207C2.1875 2.1582 2.43359 1.71875 2.82031 1.40234C3.20703 1.05078 3.66406 0.875 4.19141 0.875H11.5215C12.2598 0.910156 12.8398 1.20898 13.2617 1.77148C13.6484 2.36914 13.7188 3.03711 13.4727 3.77539L11.627 8.46875H18.3242C19.2031 8.50391 19.8184 8.87305 20.1699 9.57617C20.5566 10.2793 20.5215 11 20.0645 11.7383L9.57031 27.2949C9.14844 27.8223 8.62109 27.9805 7.98828 27.7695C7.39062 27.4531 7.16211 26.9609 7.30273 26.293L9.83398 16.0625H2.71484C2.08203 16.0273 1.55469 15.7812 1.13281 15.3242C0.746094 14.8672 0.587891 14.3223 0.658203 13.6895L2.08203 2.7207Z" fill="#495678"/>
</svg>
