<svg width="25" height="25" viewBox="0 0 25 25" fill="none" xmlns="http://www.w3.org/2000/svg">
<g id="home-2">
<g id="vuesax/bold/home-2">
<g id="home-2_2">
<path id="Vector" d="M20.74 7.32L14.98 3.29C13.41 2.19 11 2.25 9.49 3.42L4.48 7.33C3.48 8.11 2.69 9.71 2.69 10.97V17.87C2.69 20.42 4.76 22.5 7.31 22.5H18.09C20.64 22.5 22.71 20.43 22.71 17.88V11.1C22.71 9.75 21.84 8.09 20.74 7.32ZM13.45 18.5C13.45 18.91 13.11 19.25 12.7 19.25C12.29 19.25 11.95 18.91 11.95 18.5V15.5C11.95 15.09 12.29 14.75 12.7 14.75C13.11 14.75 13.45 15.09 13.45 15.5V18.5Z" fill="#1C2C56"/>
</g>
</g>
</g>
</svg>
