<svg width="21" height="19" viewBox="0 0 21 19" fill="none" xmlns="http://www.w3.org/2000/svg">
<path d="M15 0.598438H18.9375C19.2891 0.621876 19.4766 0.809376 19.5 1.16094V5.09844C19.4766 5.45 19.2891 5.6375 18.9375 5.66094C18.5859 5.6375 18.3984 5.45 18.375 5.09844V2.49688L12.5742 7.77031C12.3398 7.95781 12.0938 7.96953 11.8359 7.80547L7.125 4.11406L1.28906 8.36797C0.984375 8.55547 0.714844 8.52031 0.480469 8.2625C0.316406 7.95781 0.363281 7.68828 0.621094 7.45391L6.80859 2.95391C7.01953 2.81328 7.24219 2.81328 7.47656 2.95391L12.1523 6.61016L17.5312 1.72344H15C14.6484 1.7 14.4609 1.5125 14.4375 1.16094C14.4609 0.809376 14.6484 0.621876 15 0.598438ZM7.125 16.3484C7.47656 16.325 7.66406 16.1375 7.6875 15.7859V10.1609C7.66406 9.80938 7.47656 9.62188 7.125 9.59844C6.77344 9.62188 6.58594 9.80938 6.5625 10.1609V15.7859C6.58594 16.1375 6.77344 16.325 7.125 16.3484ZM7.125 8.47344C7.59375 8.49688 7.99219 8.66094 8.32031 8.96563C8.625 9.29375 8.78906 9.69219 8.8125 10.1609V15.7859C8.78906 16.2547 8.625 16.6531 8.32031 16.9813C7.99219 17.2859 7.59375 17.45 7.125 17.4734C6.65625 17.45 6.25781 17.2859 5.92969 16.9813C5.625 16.6531 5.46094 16.2547 5.4375 15.7859V10.1609C5.46094 9.69219 5.625 9.29375 5.92969 8.96563C6.25781 8.66094 6.65625 8.49688 7.125 8.47344ZM3.1875 15.7859V13.5359C3.16406 13.1844 2.97656 12.9969 2.625 12.9734C2.27344 12.9969 2.08594 13.1844 2.0625 13.5359V15.7859C2.08594 16.1375 2.27344 16.325 2.625 16.3484C2.97656 16.325 3.16406 16.1375 3.1875 15.7859ZM2.625 11.8484C3.09375 11.8719 3.49219 12.0359 3.82031 12.3406C4.125 12.6688 4.28906 13.0672 4.3125 13.5359V15.7859C4.28906 16.2547 4.125 16.6531 3.82031 16.9813C3.49219 17.2859 3.09375 17.45 2.625 17.4734C2.15625 17.45 1.75781 17.2859 1.42969 16.9813C1.125 16.6531 0.960938 16.2547 0.9375 15.7859V13.5359C0.960938 13.0672 1.125 12.6688 1.42969 12.3406C1.75781 12.0359 2.15625 11.8719 2.625 11.8484ZM11.625 13.5359C11.625 14.2391 11.8008 14.8953 12.1523 15.5047C12.5039 16.1141 12.9844 16.5945 13.5938 16.9461C14.2031 17.2977 14.8594 17.4734 15.5625 17.4734C16.2656 17.4734 16.9219 17.2977 17.5312 16.9461C18.1406 16.5945 18.6211 16.1141 18.9727 15.5047C19.3242 14.8953 19.5 14.2391 19.5 13.5359C19.5 12.8328 19.3242 12.1766 18.9727 11.5672C18.6211 10.9578 18.1406 10.4773 17.5312 10.1258C16.9219 9.77422 16.2656 9.59844 15.5625 9.59844C14.8594 9.59844 14.2031 9.77422 13.5938 10.1258C12.9844 10.4773 12.5039 10.9578 12.1523 11.5672C11.8008 12.1766 11.625 12.8328 11.625 13.5359ZM20.625 13.5359C20.625 14.45 20.4023 15.2938 19.957 16.0672C19.5117 16.8406 18.8906 17.4617 18.0938 17.9305C17.2969 18.3758 16.4531 18.5984 15.5625 18.5984C14.6719 18.5984 13.8281 18.3758 13.0312 17.9305C12.2344 17.4617 11.6133 16.8406 11.168 16.0672C10.7227 15.2938 10.5 14.45 10.5 13.5359C10.5 12.6219 10.7227 11.7781 11.168 11.0047C11.6133 10.2313 12.2344 9.61016 13.0312 9.14141C13.8281 8.69609 14.6719 8.47344 15.5625 8.47344C16.4531 8.47344 17.2969 8.69609 18.0938 9.14141C18.8906 9.61016 19.5117 10.2313 19.957 11.0047C20.4023 11.7781 20.625 12.6219 20.625 13.5359ZM14.7188 12.5164C14.6953 12.5398 14.7539 12.5984 14.8945 12.6922C15.082 12.7859 15.3633 12.8797 15.7383 12.9734C16.0898 13.0438 16.4531 13.1727 16.8281 13.3602C17.2266 13.5711 17.4609 13.9578 17.5312 14.5203C17.5078 15.1531 17.25 15.5867 16.7578 15.8211C16.5703 15.9148 16.3594 15.9852 16.125 16.032V16.3836C16.1016 16.7352 15.9141 16.9227 15.5625 16.9461C15.2344 16.9227 15.0469 16.7352 15 16.3836V15.9969C14.6953 15.9266 14.4141 15.8445 14.1562 15.7508C14.1094 15.7508 14.0742 15.7391 14.0508 15.7156C14.0273 15.7156 14.0039 15.7156 13.9805 15.7156C13.6758 15.575 13.5586 15.3406 13.6289 15.0125C13.7695 14.6844 14.0039 14.5555 14.332 14.6258C14.4023 14.6492 14.4727 14.6727 14.543 14.6961C14.918 14.8367 15.2695 14.9188 15.5977 14.9422C15.832 14.9422 16.043 14.8953 16.2305 14.8016C16.3008 14.7547 16.3477 14.7195 16.3711 14.6961C16.3945 14.6727 16.4062 14.6141 16.4062 14.5203C16.4297 14.4969 16.3711 14.4383 16.2305 14.3445C16.0664 14.2508 15.7969 14.157 15.4219 14.0633L15.3516 14.0281C15.0234 13.9578 14.6953 13.8406 14.3672 13.6766C13.9453 13.4891 13.6875 13.1258 13.5938 12.5867C13.6172 11.9305 13.875 11.4969 14.3672 11.2859C14.5781 11.1688 14.7891 11.0984 15 11.075V10.7234C15.0234 10.3719 15.2109 10.1844 15.5625 10.1609C15.9141 10.1844 16.1016 10.3719 16.125 10.7234V11.0398C16.3359 11.0867 16.5469 11.1336 16.7578 11.1805C17.0859 11.2977 17.2266 11.5203 17.1797 11.8484C17.0625 12.1766 16.8281 12.3172 16.4766 12.2703C16.1484 12.1766 15.8438 12.1297 15.5625 12.1297C15.3281 12.1297 15.1055 12.1766 14.8945 12.2703C14.8242 12.3172 14.7773 12.3523 14.7539 12.3758C14.7305 12.3992 14.7188 12.4461 14.7188 12.5164Z" fill="#A4ABBB"/>
</svg>
