<svg width="31" height="25" viewBox="0 0 31 25" fill="none" xmlns="http://www.w3.org/2000/svg">
<path d="M27 3.09375H3.375C2.84766 3.12891 2.56641 3.41016 2.53125 3.9375V5.625H27.8438V3.9375C27.8086 3.41016 27.5273 3.12891 27 3.09375ZM27.8438 10.6875H2.53125V20.8125C2.56641 21.3398 2.84766 21.6211 3.375 21.6562H27C27.5273 21.6211 27.8086 21.3398 27.8438 20.8125V10.6875ZM3.375 0.5625H27C27.9492 0.597656 28.7402 0.931641 29.373 1.56445C30.0059 2.19727 30.3398 2.98828 30.375 3.9375V20.8125C30.3398 21.7617 30.0059 22.5527 29.373 23.1855C28.7402 23.8184 27.9492 24.1523 27 24.1875H3.375C2.42578 24.1523 1.63477 23.8184 1.00195 23.1855C0.369141 22.5527 0.0351563 21.7617 0 20.8125V3.9375C0.0351563 2.98828 0.369141 2.19727 1.00195 1.56445C1.63477 0.931641 2.42578 0.597656 3.375 0.5625ZM6.32812 16.5938H8.85938C9.63281 16.6641 10.0547 17.0859 10.125 17.8594C10.0547 18.6328 9.63281 19.0547 8.85938 19.125H6.32812C5.55469 19.0547 5.13281 18.6328 5.0625 17.8594C5.13281 17.0859 5.55469 16.6641 6.32812 16.5938ZM13.0781 16.5938H18.9844C19.7578 16.6641 20.1797 17.0859 20.25 17.8594C20.1797 18.6328 19.7578 19.0547 18.9844 19.125H13.0781C12.3047 19.0547 11.8828 18.6328 11.8125 17.8594C11.8828 17.0859 12.3047 16.6641 13.0781 16.5938Z" fill="#495678"/>
</svg>
