<svg width="25" height="21" viewBox="0 0 25 21" fill="none" xmlns="http://www.w3.org/2000/svg">
<path d="M1.875 3.9375V7.0625C1.82292 7.63542 1.51042 7.94792 0.9375 8C0.364583 7.94792 0.0520833 7.63542 0 7.0625V3.9375C0.0260417 2.97396 0.364583 2.16667 1.01562 1.51562C1.66667 0.864583 2.47396 0.526042 3.4375 0.5H21.5625C22.526 0.526042 23.3333 0.864583 23.9844 1.51562C24.6354 2.16667 24.974 2.97396 25 3.9375V7.0625C24.9479 7.63542 24.6354 7.94792 24.0625 8C23.4896 7.94792 23.1771 7.63542 23.125 7.0625V3.9375C23.125 3.49479 22.9688 3.13021 22.6562 2.84375C22.3698 2.53125 22.0052 2.375 21.5625 2.375H3.4375C2.99479 2.375 2.63021 2.53125 2.34375 2.84375C2.03125 3.13021 1.875 3.49479 1.875 3.9375ZM18.125 4.25H20V18C19.974 18.7031 19.7266 19.2891 19.2578 19.7578C18.7891 20.2266 18.2031 20.474 17.5 20.5H7.5C6.79688 20.474 6.21094 20.2266 5.74219 19.7578C5.27344 19.2891 5.02604 18.7031 5 18V4.25H6.875V18C6.90104 18.3906 7.10938 18.599 7.5 18.625H17.5C17.8906 18.599 18.099 18.3906 18.125 18V4.25ZM12.5 14.25C11.4323 14.224 10.5469 13.9245 9.84375 13.3516C9.14062 12.7526 8.77604 12.0104 8.75 11.125C8.77604 10.2396 9.14062 9.4974 9.84375 8.89844C10.5469 8.32552 11.4323 8.02604 12.5 8C13.5677 8.02604 14.4531 8.32552 15.1562 8.89844C15.8594 9.4974 16.224 10.2396 16.25 11.125C16.224 12.0104 15.8594 12.7526 15.1562 13.3516C14.4531 13.9245 13.5677 14.224 12.5 14.25Z" fill="#1C2C56"/>
</svg>
