<svg width="25" height="24" viewBox="0 0 25 24" fill="none" xmlns="http://www.w3.org/2000/svg">
<g id="vuesax/twotone/notification">
<g id="notification">
<path id="Vector" d="M12.1899 2.90997C8.87992 2.90997 6.18992 5.59997 6.18992 8.90997V11.8C6.18992 12.41 5.92992 13.34 5.61992 13.86L4.46992 15.77C3.75992 16.95 4.24992 18.26 5.54992 18.7C9.85992 20.14 14.5099 20.14 18.8199 18.7C20.0299 18.3 20.5599 16.87 19.8999 15.77L18.7499 13.86C18.4499 13.34 18.1899 12.41 18.1899 11.8V8.90997C18.1899 5.60997 15.4899 2.90997 12.1899 2.90997Z" fill="#162345" stroke="#162345" stroke-width="1.5" stroke-miterlimit="10" stroke-linecap="round"/>
<path id="Vector_2" d="M14.0399 3.2C13.7299 3.11 13.4099 3.04 13.0799 3C12.1199 2.88 11.1999 2.95 10.3399 3.2C10.6299 2.46 11.3499 1.94 12.1899 1.94C13.0299 1.94 13.7499 2.46 14.0399 3.2Z" fill="#162345" stroke="#162345" stroke-width="1.5" stroke-miterlimit="10" stroke-linecap="round" stroke-linejoin="round"/>
<path id="Vector_3" opacity="0.4" d="M15.1899 19.06C15.1899 20.71 13.8399 22.06 12.1899 22.06C11.3699 22.06 10.6099 21.72 10.0699 21.18C9.52991 20.64 9.18991 19.88 9.18991 19.06" stroke="#162345" stroke-width="1.5" stroke-miterlimit="10"/>
</g>
</g>
</svg>
