<svg width="28" height="27" viewBox="0 0 28 27" fill="none" xmlns="http://www.w3.org/2000/svg">
<path id="Vector" d="M16.7053 10.916C21.077 10.4361 24.5311 6.9293 24.9318 2.53125H24.5469C20.5021 2.53125 17.0586 5.12051 15.7877 8.72754C15.3236 7.8416 14.7646 7.0084 14.1213 6.24375C16.1146 2.53125 20.0381 0 24.5469 0H25.8125C26.7459 0 27.5 0.754102 27.5 1.6875C27.5 7.67812 23.0387 12.6246 17.259 13.3945C17.1482 12.5402 16.9637 11.7123 16.7053 10.9107V10.916ZM3.03125 5.90625V6.75C3.03125 11.8758 7.18672 16.0312 12.3125 16.0312H12.7344V15.1875C12.7344 10.0617 8.57891 5.90625 3.45312 5.90625H3.03125ZM15.2656 15.1875V16.0312V18.5625V25.7344C15.2656 26.4357 14.7014 27 14 27C13.2986 27 12.7344 26.4357 12.7344 25.7344V18.5625H12.3125C5.78926 18.5625 0.5 13.2732 0.5 6.75V5.0625C0.5 4.1291 1.2541 3.375 2.1875 3.375H3.45312C9.97637 3.375 15.2656 8.66426 15.2656 15.1875Z" fill="#1C2C56"/>
</svg>
