<svg width="31" height="28" viewBox="0 0 31 28" fill="none" xmlns="http://www.w3.org/2000/svg">
<path d="M15.6875 0.375C16.4609 0.445312 16.8828 0.867187 16.9531 1.64062V2.95898C20.2578 3.27539 23.123 4.40039 25.5488 6.33398C27.9746 8.26758 29.6094 10.7285 30.4531 13.7168C30.4531 13.752 30.4531 13.7871 30.4531 13.8223C30.4531 13.8926 30.4707 13.9453 30.5059 13.9805C30.5762 14.2617 30.6289 14.5605 30.6641 14.877C30.6992 15.0527 30.7344 15.2461 30.7695 15.457C30.7695 15.8789 30.6113 16.1602 30.2949 16.3008C29.9434 16.4766 29.6094 16.4238 29.293 16.1426C29.1523 15.9668 28.9941 15.8262 28.8184 15.7207C28.6426 15.5801 28.4492 15.457 28.2383 15.3516V15.2988H28.1855C27.4473 14.9121 26.6562 14.7188 25.8125 14.7188C24.1602 14.7891 22.9297 15.5098 22.1211 16.8809C22.1211 16.8809 22.1211 16.8984 22.1211 16.9336C22.0859 16.9688 22.0684 17.0039 22.0684 17.0391C21.9277 17.25 21.8398 17.4785 21.8047 17.7246C21.7344 17.8301 21.6992 17.9531 21.6992 18.0938C21.5586 18.5859 21.2422 18.8672 20.75 18.9375C20.2578 18.8672 19.9414 18.5859 19.8008 18.0938C19.8008 17.9531 19.7832 17.8301 19.748 17.7246C19.6426 17.4785 19.5371 17.25 19.4316 17.0391C19.4316 17.0039 19.4316 16.9863 19.4316 16.9863C19.3965 16.9512 19.3789 16.916 19.3789 16.8809C18.5703 15.5098 17.3398 14.7891 15.6875 14.7188C14.0352 14.7891 12.8047 15.5098 11.9961 16.8809C11.9609 16.916 11.9434 16.9688 11.9434 17.0391C11.8027 17.25 11.7148 17.4785 11.6797 17.7246C11.6094 17.8301 11.5742 17.9531 11.5742 18.0938C11.4336 18.5859 11.1172 18.8672 10.625 18.9375C10.1328 18.8672 9.81641 18.5859 9.67578 18.0938C9.67578 17.9531 9.6582 17.8301 9.62305 17.7246C9.51758 17.4785 9.41211 17.25 9.30664 17.0391C9.30664 17.0039 9.30664 16.9863 9.30664 16.9863C9.27148 16.9512 9.25391 16.916 9.25391 16.8809C8.44531 15.5098 7.21484 14.7891 5.5625 14.7188C4.71875 14.7188 3.92773 14.9121 3.18945 15.2988C3.18945 15.2988 3.17188 15.2988 3.13672 15.2988C3.13672 15.334 3.13672 15.3516 3.13672 15.3516C2.92578 15.457 2.73242 15.5801 2.55664 15.7207C2.38086 15.8262 2.22266 15.9668 2.08203 16.1426C1.76562 16.4238 1.43164 16.4941 1.08008 16.3535C0.763672 16.1777 0.605469 15.8789 0.605469 15.457C0.640625 15.2461 0.675781 15.0527 0.710938 14.877C0.746094 14.5605 0.798828 14.2617 0.869141 13.9805C0.904297 13.9453 0.921875 13.8926 0.921875 13.8223C0.921875 13.7871 0.939453 13.752 0.974609 13.7168C1.7832 10.7285 3.40039 8.26758 5.82617 6.33398C8.25195 4.40039 11.1172 3.27539 14.4219 2.95898V1.64062C14.4922 0.867187 14.9141 0.445312 15.6875 0.375ZM20.75 14.4551C22.0508 13.0137 23.7383 12.2578 25.8125 12.1875C26.2695 12.1875 26.7266 12.2402 27.1836 12.3457C26.1641 10.2715 24.6523 8.61914 22.6484 7.38867C20.6445 6.12305 18.3242 5.47266 15.6875 5.4375C13.0508 5.47266 10.7305 6.12305 8.72656 7.38867C6.72266 8.61914 5.21094 10.2715 4.19141 12.3457C4.64844 12.2402 5.10547 12.1875 5.5625 12.1875C7.63672 12.2578 9.32422 13.0137 10.625 14.4551C11.9258 13.0137 13.6133 12.2578 15.6875 12.1875C17.7617 12.2578 19.4492 13.0137 20.75 14.4551ZM15.6875 16.4062C16.1445 16.4062 16.5664 16.5117 16.9531 16.7227V23.5254C16.918 24.6152 16.5312 25.5293 15.793 26.2676C15.0898 26.9707 14.1934 27.3398 13.1035 27.375C11.5215 27.3047 10.3613 26.584 9.62305 25.2129L9.51758 25.002C9.23633 24.2637 9.41211 23.6836 10.0449 23.2617C10.7832 23.0156 11.3633 23.209 11.7852 23.8418L11.8906 24.1055C12.1367 24.5625 12.541 24.8086 13.1035 24.8438C13.9121 24.7734 14.3516 24.334 14.4219 23.5254V16.7227C14.8086 16.5117 15.2305 16.4062 15.6875 16.4062Z" fill="#495678"/>
</svg>
