<svg width="32" height="27" viewBox="0 0 32 27" fill="none" xmlns="http://www.w3.org/2000/svg">
<g id="vault 1" clip-path="url(#clip0_32_4952)">
<path id="Vector" d="M4.1875 2.53125C3.72344 2.53125 3.34375 2.91094 3.34375 3.375V21.9375C3.34375 22.4016 3.72344 22.7812 4.1875 22.7812H27.8125C28.2766 22.7812 28.6562 22.4016 28.6562 21.9375V3.375C28.6562 2.91094 28.2766 2.53125 27.8125 2.53125H4.1875ZM0.8125 3.375C0.8125 1.51348 2.32598 0 4.1875 0H27.8125C29.674 0 31.1875 1.51348 31.1875 3.375V21.9375C31.1875 23.799 29.674 25.3125 27.8125 25.3125V25.7344C27.8125 26.4357 27.2482 27 26.5469 27C25.8455 27 25.2812 26.4357 25.2812 25.7344V25.3125H6.71875V25.7344C6.71875 26.4357 6.15449 27 5.45312 27C4.75176 27 4.1875 26.4357 4.1875 25.7344V25.3125C2.32598 25.3125 0.8125 23.799 0.8125 21.9375V3.375ZM17.6875 12.6562C17.6875 11.9914 17.5566 11.3331 17.3021 10.7189C17.0477 10.1047 16.6748 9.54662 16.2047 9.07652C15.7346 8.60643 15.1765 8.23352 14.5623 7.97911C13.9481 7.72469 13.2898 7.59375 12.625 7.59375C11.9602 7.59375 11.3019 7.72469 10.6877 7.97911C10.0735 8.23352 9.51537 8.60643 9.04527 9.07652C8.57518 9.54662 8.20227 10.1047 7.94786 10.7189C7.69345 11.3331 7.5625 11.9914 7.5625 12.6562C7.5625 13.3211 7.69345 13.9794 7.94786 14.5936C8.20227 15.2078 8.57518 15.7659 9.04527 16.236C9.51537 16.7061 10.0735 17.079 10.6877 17.3334C11.3019 17.5878 11.9602 17.7188 12.625 17.7188C13.2898 17.7188 13.9481 17.5878 14.5623 17.3334C15.1765 17.079 15.7346 16.7061 16.2047 16.236C16.6748 15.7659 17.0477 15.2078 17.3021 14.5936C17.5566 13.9794 17.6875 13.3211 17.6875 12.6562ZM5.03125 12.6562C5.03125 11.659 5.22767 10.6716 5.60929 9.75025C5.99091 8.82893 6.55026 7.9918 7.25541 7.28666C7.96055 6.58151 8.79768 6.02216 9.719 5.64054C10.6403 5.25892 11.6278 5.0625 12.625 5.0625C13.6222 5.0625 14.6097 5.25892 15.531 5.64054C16.4523 6.02216 17.2894 6.58151 17.9946 7.28666C18.6997 7.9918 19.2591 8.82893 19.6407 9.75025C20.0223 10.6716 20.2188 11.659 20.2188 12.6562C20.2188 13.6535 20.0223 14.6409 19.6407 15.5623C19.2591 16.4836 18.6997 17.3207 17.9946 18.0258C17.2894 18.731 16.4523 19.2903 15.531 19.672C14.6097 20.0536 13.6222 20.25 12.625 20.25C11.6278 20.25 10.6403 20.0536 9.719 19.672C8.79768 19.2903 7.96055 18.731 7.25541 18.0258C6.55026 17.3207 5.99091 16.4836 5.60929 15.5623C5.22767 14.6409 5.03125 13.6535 5.03125 12.6562ZM12.625 10.125C13.2963 10.125 13.9402 10.3917 14.4149 10.8664C14.8896 11.3411 15.1562 11.9849 15.1562 12.6562C15.1562 13.3276 14.8896 13.9714 14.4149 14.4461C13.9402 14.9208 13.2963 15.1875 12.625 15.1875C11.9537 15.1875 11.3098 14.9208 10.8351 14.4461C10.3604 13.9714 10.0938 13.3276 10.0938 12.6562C10.0938 11.9849 10.3604 11.3411 10.8351 10.8664C11.3098 10.3917 11.9537 10.125 12.625 10.125ZM26.9688 9.28125C26.9688 10.2199 26.4572 11.0373 25.7031 11.475V17.2969C25.7031 17.9982 25.1389 18.5625 24.4375 18.5625C23.7361 18.5625 23.1719 17.9982 23.1719 17.2969V11.475C22.4178 11.0373 21.9062 10.2199 21.9062 9.28125C21.9062 7.88379 23.04 6.75 24.4375 6.75C25.835 6.75 26.9688 7.88379 26.9688 9.28125Z" fill="#1C2C56"/>
</g>
<defs>
<clipPath id="clip0_32_4952">
<rect width="30.375" height="27" fill="white" transform="translate(0.8125)"/>
</clipPath>
</defs>
</svg>
